<svg width="100" height="100" viewBox="0 0 100 100" fill="none" xmlns="http://www.w3.org/2000/svg">
<rect opacity="0.01" width="100" height="100" fill="white"/>
<path fill-rule="evenodd" clip-rule="evenodd" d="M84.4616 13.591L84.4608 13.5941C85.2239 30.4643 80.3349 43.621 69.9398 52.7148C70.2637 54.1105 71.3328 60.0445 67.2854 64.2775C65.6677 65.9699 64.173 67.4738 62.843 68.7477C62.3773 69.199 61.7542 69.4514 61.1057 69.4514C60.9514 69.4513 60.7975 69.4374 60.6457 69.4098C59.8481 69.2694 59.1679 68.7513 58.8205 68.0197L55.5182 61.1662C52.7092 62.2367 49.7917 62.9972 46.8175 63.4343L46.5783 63.4616L34.1774 51.0934L34.2038 50.8537C34.635 47.8657 35.392 44.9338 36.4611 42.1105C35.5846 41.7347 33.7244 40.8449 29.591 38.8677L29.5841 38.8644C28.8542 38.5158 28.3356 37.8386 28.1892 37.043C28.0428 36.2475 28.2864 35.43 28.8444 34.8444C30.1066 33.5187 31.6066 32.0197 33.3024 30.3889C37.5249 26.3296 43.4614 27.3818 44.858 27.7016C53.9305 17.2712 67.0871 12.3435 83.983 13.0701C84.0051 13.0738 84.0269 13.0792 84.0482 13.0861C84.2188 13.1062 84.3637 13.2207 84.4227 13.3821C84.4321 13.4113 84.4387 13.4412 84.4426 13.4715C84.4501 13.4964 84.4558 13.5218 84.4596 13.5475L84.4605 13.5845L84.4616 13.591ZM68.9392 52.3204C68.9722 52.2526 69.0203 52.1933 69.0797 52.147C79.2894 43.3339 84.1255 30.5176 83.4733 14.0587C67.007 13.4576 54.2107 18.3263 45.4273 28.5609L45.4097 28.5801L45.4088 28.5812L45.4064 28.583C45.3615 28.6338 45.3068 28.6749 45.2454 28.7037C45.2296 28.7101 45.2134 28.7155 45.1969 28.72C45.1507 28.7376 45.102 28.748 45.0527 28.7509C45.0445 28.7513 45.0371 28.7561 45.0289 28.7561C45.0077 28.7537 44.9867 28.75 44.9661 28.7451C44.9433 28.7452 44.9206 28.7436 44.8981 28.7404C44.8331 28.7223 38.2877 26.9826 33.9957 31.1096C32.3102 32.7302 30.821 34.2189 29.569 35.5339C29.2315 35.8874 29.084 36.3814 29.1725 36.862C29.2609 37.3427 29.5745 37.7518 30.0157 37.9621C30.0157 37.9621 37.193 41.3957 37.2877 41.4406L37.7032 41.6369L37.5431 42.0681C36.4732 44.8672 35.6976 47.77 35.2286 50.7297L46.9391 62.4093C49.8973 61.932 52.7979 61.1481 55.5939 60.0705C56.049 59.964 56.0495 59.965 59.6748 67.4895L59.7213 67.5861C59.9331 68.0267 60.3432 68.339 60.8243 68.426C61.3053 68.513 61.7989 68.3641 62.1515 68.0256C63.4708 66.7619 64.9552 65.2682 66.5626 63.5861C70.6784 59.2819 68.9191 52.7428 68.901 52.6769C68.8925 52.6359 68.8895 52.594 68.8919 52.5522C68.8918 52.545 68.8909 52.5379 68.8899 52.5308C68.8887 52.5214 68.8874 52.5119 68.8882 52.5024C68.8936 52.4475 68.9082 52.3939 68.9314 52.3439C68.9348 52.3362 68.9354 52.3279 68.9392 52.3204Z" fill="black"/>
<path fill-rule="evenodd" clip-rule="evenodd" d="M53.4453 36.5938C53.4454 32.2875 56.9364 28.7967 61.2427 28.7969C65.5468 28.8021 69.0346 32.2901 69.0396 36.5942C69.0394 40.9005 65.5484 44.3912 61.2422 44.3911C56.936 44.391 53.4452 40.9 53.4453 36.5938ZM54.9628 39.1953C56.0149 41.7352 58.4935 43.3912 61.2427 43.3911C64.9947 43.3868 68.0352 40.3463 68.0396 36.5942C68.0396 33.845 66.3836 31.3664 63.8437 30.3143C61.3038 29.2622 58.3801 29.8437 56.4361 31.7877C54.4921 33.7317 53.9106 36.6553 54.9628 39.1953Z" fill="black"/>
<path d="M38.8204 65.771C38.5833 65.6292 38.2762 65.7064 38.1343 65.9434C37.9925 66.1804 38.0697 66.4876 38.3067 66.6294C40.1366 67.8125 41.2381 69.8459 41.2296 72.0249C41.1878 74.2296 40.2955 76.3328 38.7393 77.8951C37.1548 79.469 35.187 80.6022 33.0303 81.1827C32.0777 81.4595 31.0762 81.6577 30.1085 81.8497L29.3008 82.0118C25.7416 82.7416 22.2493 83.7661 18.8599 85.0748C18.7285 85.1256 18.5957 85.1832 18.4639 85.2467C18.0283 85.4596 17.5174 85.4519 17.0884 85.2261C16.7185 85.0355 16.4655 84.6758 16.4111 84.2632C16.1464 82.2828 16.2208 80.2719 16.6309 78.3164C17.281 75.3683 18.4392 72.5559 20.0537 70.0049C20.8105 68.7652 20.8398 67.7286 20.1348 67.1617C19.8032 66.9292 19.4115 66.7977 19.0068 66.7832L15.771 66.4131C15.6808 66.4053 15.5913 66.3906 15.5034 66.3691C15.5005 66.3603 15.477 66.2749 15.5869 65.9873C16.6687 62.7358 18.9349 60.0106 21.9346 58.354C25.0737 56.8183 29.0059 57.3657 31.0786 59.6289C31.2653 59.832 31.5812 59.8456 31.7847 59.6592C31.9881 59.4727 32.002 59.1568 31.8159 58.9531C29.4165 56.334 25.0766 55.7036 21.4951 57.4556C18.2669 59.2227 15.8235 62.1419 14.6524 65.6309C14.4286 66.0718 14.4613 66.5994 14.7378 67.0093C14.9821 67.2543 15.311 67.3964 15.6568 67.4063L18.8932 67.7764C19.1081 67.7811 19.3188 67.8373 19.5074 67.9405C19.8214 68.1929 19.5548 68.9034 19.2003 69.4835C17.525 72.134 16.3238 75.0559 15.6505 78.1183C15.2183 80.1846 15.1407 82.3095 15.4209 84.4019C15.5209 85.1299 15.9657 85.7651 16.6158 86.1079C16.9774 86.3003 17.3809 86.4006 17.7906 86.3999C18.1738 86.4001 18.5521 86.3139 18.8975 86.1479C19.0049 86.0962 19.1123 86.0495 19.2198 86.0078C22.5574 84.7192 25.9963 83.7102 29.501 82.9912L30.3028 82.8306C31.292 82.6348 32.315 82.4316 33.3096 82.1426C35.6345 81.5133 37.7548 80.2878 39.4605 78.5874C41.1968 76.8367 42.189 74.4825 42.2295 72.0171C42.2317 69.4902 40.9468 67.1361 38.8204 65.771Z" fill="black"/>
</svg>
