<svg width="100" height="100" viewBox="0 0 100 100" fill="none" xmlns="http://www.w3.org/2000/svg">
<rect opacity="0.01" width="100" height="100" fill="white"/>
<path fill-rule="evenodd" clip-rule="evenodd" d="M77.6325 41.9151L86.373 31.664C86.9079 31.0729 87.1288 30.2622 86.9676 29.4815C86.8065 28.7008 86.2827 28.0438 85.5576 27.7128L60.3271 15.2407C60.0795 15.1182 59.7796 15.2197 59.6572 15.4672C59.5347 15.7148 59.6362 16.0147 59.8837 16.1372L85.1318 28.6176C85.5728 28.8148 85.8918 29.2123 85.9888 29.6855C86.0858 30.1587 85.9489 30.6496 85.621 31.0043L76.7616 41.3947L64.8447 34.4487C64.606 34.3096 64.2997 34.3902 64.1606 34.6289C64.0214 34.8676 64.1021 35.1738 64.3408 35.313L75.8151 42.001L49.664 54.4907L23.5355 42.0114L34.5293 35.9047C34.6867 35.8185 34.7859 35.6546 34.7891 35.4751C34.7924 35.2957 34.6992 35.1282 34.545 35.0364C34.3908 34.9445 34.1992 34.9424 34.0429 35.0307L22.8087 41.2709L14.0869 31.1103C13.758 30.7551 13.6206 30.2631 13.7179 29.7888C13.8151 29.3146 14.135 28.9164 14.5771 28.7192L39.1347 16.1337C39.2947 16.0527 39.3991 15.8922 39.4082 15.7131C39.4174 15.534 39.3299 15.3637 39.179 15.2668C39.028 15.1699 38.8368 15.1612 38.6777 15.2441L14.1386 27.8203C13.4152 28.155 12.8947 28.8145 12.7371 29.5958C12.5795 30.3772 12.8037 31.1868 13.3408 31.7758L21.8795 41.7247L13.2871 49.8208C12.7046 50.3691 12.4199 51.1632 12.5211 51.9567C12.6223 52.7503 13.0973 53.4474 13.7988 53.832L21.9453 58.3572V72.8164C21.9482 73.7785 22.5003 74.6545 23.3671 75.0722L48.5869 87.1171C49.2681 87.444 50.0609 87.444 50.7421 87.1171L75.9619 75.0722C76.8287 74.6545 77.3808 73.7785 77.3837 72.8164V58.1504L85.4237 53.7553C86.1265 53.3716 86.6029 52.6744 86.7049 51.8802C86.807 51.086 86.5223 50.291 85.9394 49.7421L77.6325 41.9151ZM13.5136 51.832C13.4495 51.355 13.6206 50.8765 13.9726 50.5483L22.4213 42.5877L48.6235 55.1021L38.1162 65.001C37.6454 65.4467 36.9409 65.538 36.372 65.2271L14.2812 52.956C13.8584 52.7278 13.5723 52.3089 13.5136 51.832ZM22.9453 72.8164C22.947 73.3938 23.2785 73.9195 23.7988 74.1699L49.0185 86.2148C49.0661 86.2342 49.1147 86.2511 49.164 86.2654V55.9663L38.8017 65.7285C38.0152 66.4721 36.8387 66.6234 35.8896 66.103L22.9453 58.9127V72.8164ZM76.3838 72.8164C76.3821 73.3938 76.0506 73.9195 75.5303 74.1699L50.3105 86.2148C50.2626 86.2343 50.2137 86.2514 50.164 86.2658V56.5358L59.9218 65.7285C60.7088 66.4728 61.8862 66.6241 62.8359 66.103L76.3837 58.697L76.3838 72.8164ZM84.9443 52.8774C85.3678 52.649 85.6546 52.2298 85.7139 51.7524C85.777 51.2757 85.6057 50.798 85.2539 50.4702L76.895 42.5937L50.3034 55.2937L60.6074 65.0009C61.0799 65.4474 61.7866 65.5379 62.3564 65.225L84.9443 52.8774Z" fill="black"/>
<path d="M48.3118 37.7559C48.8971 38.3242 49.8282 38.3242 50.4134 37.7559L58.5755 29.75C58.7713 29.5561 58.7735 29.2405 58.5804 29.0439C58.3873 28.8473 58.0717 28.8439 57.8743 29.0361L49.8626 36.8945V12.5C49.8626 12.2239 49.6388 12 49.3626 12C49.0865 12 48.8626 12.2239 48.8626 12.5V36.8955L40.8499 29.0361C40.7224 28.9109 40.5378 28.8632 40.3655 28.911C40.1933 28.9588 40.0597 29.0949 40.0149 29.2679C39.9702 29.441 40.0212 29.6247 40.1488 29.75L48.3118 37.7559Z" fill="black"/>
</svg>
